<svg width="32" height="18" viewBox="0 0 32 18" fill="none" xmlns="http://www.w3.org/2000/svg">
<path d="M30.375 1.625V10.375M1.5 12.125H6.1725H10.845C11.965 12.125 12.875 13.035 12.875 14.155V16.395M19 10.375C20.1603 10.375 21.2731 9.91406 22.0936 9.09359C22.9141 8.27312 23.375 7.16032 23.375 6C23.375 4.83968 22.9141 3.72688 22.0936 2.90641C21.2731 2.08594 20.1603 1.625 19 1.625C17.8397 1.625 16.7269 2.08594 15.9064 2.90641C15.0859 3.72688 14.625 4.83968 14.625 6C14.625 7.16032 15.0859 8.27312 15.9064 9.09359C16.7269 9.91406 17.8397 10.375 19 10.375Z" stroke="#03C1F3" stroke-width="1.5" stroke-miterlimit="10" stroke-linecap="round" stroke-linejoin="round"/>
</svg>
